<svg xmlns="http://www.w3.org/2000/svg" width="40" height="38"><path fill="#615DEC" fill-rule="evenodd" d="M2.671 34.364C1.224 32.31.5 29.26.5 25.214V13.206c0-2.777.288-5.06.864-6.846.576-1.788 1.566-3.161 2.969-4.121 1.403-.96 3.33-1.44 5.782-1.44 3.309 0 5.694.842 7.156 2.525 1.463 1.684 2.194 4.328 2.194 7.932v1.33h-4.697v-1.109c0-1.713-.104-3.035-.31-3.965-.207-.93-.643-1.632-1.307-2.105-.665-.473-1.647-.709-2.947-.709-1.388 0-2.422.318-3.102.953-.68.635-1.115 1.484-1.307 2.547-.192 1.064-.288 2.482-.288 4.254v13.293c0 2.747.332 4.72.997 5.916.665 1.196 1.942 1.794 3.833 1.794 1.86 0 3.138-.65 3.833-1.95.694-1.3 1.04-3.382 1.04-6.247v-2.482h-4.563v-3.544h9.084V37h-3.146l-.488-4.12c-1.122 3.042-3.25 4.563-6.38 4.563-3.25 0-5.598-1.026-7.046-3.08zM25.35 1.109h5.007V33.41h9.172V37h-14.18V1.109z"/></svg>