<svg xmlns="http://www.w3.org/2000/svg" width="240" height="37"><path fill="#615DEC" fill-rule="evenodd" d="M2.171 33.565C.724 31.512 0 28.462 0 24.415V12.407C0 9.63.288 7.348.864 5.56 1.44 3.774 2.43 2.4 3.833 1.44 5.236.48 7.163 0 9.615 0c3.309 0 5.694.842 7.156 2.526 1.463 1.683 2.194 4.327 2.194 7.931v1.33h-4.697v-1.108c0-1.714-.104-3.036-.31-3.966-.207-.93-.643-1.632-1.307-2.105-.665-.472-1.647-.709-2.947-.709-1.388 0-2.422.318-3.102.953-.68.635-1.115 1.484-1.307 2.548-.192 1.063-.288 2.481-.288 4.254v13.293c0 2.747.332 4.719.997 5.915.665 1.196 1.942 1.794 3.833 1.794 1.86 0 3.138-.65 3.833-1.95.694-1.299 1.04-3.381 1.04-6.247v-2.481h-4.563v-3.545h9.084v17.768h-3.146l-.488-4.12c-1.122 3.042-3.25 4.563-6.38 4.563-3.25 0-5.598-1.026-7.046-3.08zM24.85.31h13.913v3.722h-8.906v11.875h7.222v3.545h-7.222v13.16h8.995v3.59H24.849V.31zm18.512 0h3.412l10.191 23.84V.31h4.165v35.891h-3.19L47.614 11.698V36.2H43.36V.311zm23.875 0H81.15v3.722h-8.906v11.875h7.222v3.545h-7.222v13.16h8.995v3.59H67.236V.31zm18.512 0h7.223c3.633 0 6.3.746 7.998 2.238 1.698 1.492 2.547 3.921 2.547 7.289 0 4.608-1.477 7.4-4.43 8.374l5.095 17.99h-4.83l-4.697-16.838h-3.899v16.838h-5.007V.311zm6.913 15.464c2.156 0 3.7-.428 4.63-1.285.93-.856 1.396-2.407 1.396-4.652 0-1.477-.163-2.637-.488-3.479-.325-.841-.9-1.462-1.728-1.86-.827-.4-1.994-.599-3.5-.599h-2.216v11.875h1.906zM109.489.31h4.919v35.891h-4.919V.311zm12.708 33.122c-1.447-2.112-2.17-5.03-2.17-8.751V12.008c0-3.929.708-6.912 2.126-8.95C123.571 1.018 126.082 0 129.686 0c3.22 0 5.531.871 6.934 2.614 1.403 1.743 2.105 4.313 2.105 7.71v2.836h-4.741v-2.526c0-1.654-.074-2.924-.222-3.81-.148-.886-.524-1.595-1.13-2.127-.605-.532-1.573-.798-2.902-.798-1.359 0-2.37.288-3.035.864-.665.576-1.1 1.374-1.307 2.393-.207 1.02-.31 2.385-.31 4.099v14.223c0 1.832.147 3.264.443 4.298.295 1.034.775 1.773 1.44 2.216.664.443 1.587.664 2.769.664 1.27 0 2.215-.28 2.836-.841.62-.562 1.012-1.33 1.174-2.305.162-.974.244-2.304.244-3.987v-2.659h4.74v2.659c0 3.574-.671 6.314-2.015 8.22-1.344 1.904-3.685 2.857-7.023 2.857-3.545 0-6.041-1.056-7.489-3.168zM154.614.31h5.007v32.302h9.172v3.59h-14.179V.31zm19.377 33.3c-1.522-1.995-2.282-4.882-2.282-8.663V11.343c0-3.722.768-6.543 2.304-8.463C175.549.96 178.06 0 181.546 0c3.485 0 5.989.967 7.51 2.902 1.522 1.935 2.282 4.749 2.282 8.441v13.648c0 3.722-.768 6.587-2.304 8.596-1.536 2.009-4.032 3.013-7.488 3.013-3.516 0-6.034-.997-7.555-2.99zm11.321-2.593c.65-1.093.975-2.747.975-4.963v-15.73c0-2.186-.325-3.803-.975-4.852-.65-1.048-1.905-1.573-3.766-1.573-1.89 0-3.161.525-3.811 1.573-.65 1.049-.975 2.666-.975 4.852v15.73c0 2.216.325 3.87.975 4.963.65 1.093 1.92 1.64 3.81 1.64 1.862 0 3.117-.547 3.767-1.64zm12.93 2.548c-1.448-2.053-2.172-5.103-2.172-9.15V12.407c0-2.777.288-5.059.864-6.846.576-1.787 1.566-3.16 2.97-4.12C201.305.48 203.233 0 205.685 0c3.308 0 5.693.842 7.156 2.526 1.462 1.683 2.193 4.327 2.193 7.931v1.33h-4.697v-1.108c0-1.714-.103-3.036-.31-3.966-.207-.93-.643-1.632-1.307-2.105-.665-.472-1.647-.709-2.947-.709-1.388 0-2.422.318-3.101.953-.68.635-1.116 1.484-1.308 2.548-.192 1.063-.288 2.481-.288 4.254v13.293c0 2.747.333 4.719.997 5.915.665 1.196 1.943 1.794 3.833 1.794 1.861 0 3.139-.65 3.833-1.95.694-1.299 1.041-3.381 1.041-6.247v-2.481h-4.564v-3.545h9.084v17.768h-3.146l-.488-4.12c-1.122 3.042-3.249 4.563-6.38 4.563-3.25 0-5.598-1.026-7.045-3.08zm24.295.044c-1.522-1.994-2.282-4.881-2.282-8.662V11.343c0-3.722.768-6.543 2.304-8.463C224.095.96 226.606 0 230.09 0c3.486 0 5.99.967 7.511 2.902s2.282 4.749 2.282 8.441v13.648c0 3.722-.768 6.587-2.304 8.596-1.536 2.009-4.032 3.013-7.489 3.013-3.515 0-6.033-.997-7.554-2.99zm11.32-2.592c.65-1.093.976-2.747.976-4.963v-15.73c0-2.186-.325-3.803-.975-4.852-.65-1.048-1.906-1.573-3.767-1.573-1.89 0-3.16.525-3.81 1.573-.65 1.049-.975 2.666-.975 4.852v15.73c0 2.216.325 3.87.975 4.963.65 1.093 1.92 1.64 3.81 1.64 1.861 0 3.117-.547 3.767-1.64z"/></svg>