<svg xmlns="http://www.w3.org/2000/svg" width="400" height="220"><g fill="none" fill-rule="evenodd"><path fill="#FFF" d="M0 0h400v220H0z"/><path fill="#615DEC" d="M147.526 150.888c-4.35-6.171-6.526-15.338-6.526-27.503V87.292c0-8.346.866-15.205 2.597-20.577 1.732-5.372 4.706-9.5 8.924-12.386C156.738 51.443 162.53 50 169.9 50c9.945 0 17.115 2.53 21.51 7.592 4.395 5.06 6.592 13.007 6.592 23.84v3.995h-14.117v-3.33c0-5.15-.311-9.122-.933-11.92-.621-2.796-1.93-4.905-3.929-6.326-1.997-1.42-4.95-2.13-8.856-2.13-4.174 0-7.281.954-9.323 2.863-2.043 1.909-3.352 4.462-3.93 7.658-.576 3.196-.865 7.458-.865 12.786v39.955c0 8.258.999 14.185 2.997 17.78 1.997 3.597 5.838 5.395 11.52 5.395 5.594 0 9.434-1.954 11.52-5.86 2.087-3.907 3.13-10.167 3.13-18.78v-7.458H171.5v-10.655h27.303v53.408h-9.456l-1.465-12.387c-3.374 9.146-9.767 13.718-19.178 13.718-9.767 0-16.826-3.085-21.177-9.256zm68.164-99.956h15.05v97.092h27.57v10.789h-42.62V50.933z"/></g></svg>