<svg xmlns="http://www.w3.org/2000/svg" width="240" height="37" viewBox="0 0 240 37">
  <path fill="#615DEC" fill-rule="evenodd" d="M2.17119007,33.564826 C0.723722785,31.5117857 0,28.4618111 0,24.4148108 L0,12.4068004 C0,9.63002641 0.288012129,7.34808416 0.864045027,5.56090517 C1.44007792,3.77372618 2.42965806,2.40012987 3.83281512,1.44007504 C5.23597218,0.480020215 7.16343796,0 9.6152703,0 C12.9237669,0 15.3090982,0.841881607 16.7713355,2.52567008 C18.2335729,4.20945855 18.9646806,6.85326219 18.9646806,10.4571603 L18.9646806,11.7864604 L14.2678204,11.7864604 L14.2678204,10.6787103 C14.2678204,8.96538171 14.1644315,7.64347989 13.9576504,6.71296521 C13.7508694,5.78245053 13.3151587,5.08088252 12.6505054,4.60824014 C11.985852,4.13559776 11.0036568,3.89928012 9.7038903,3.89928012 C8.31550332,3.89928012 7.28161362,4.21683196 6.6021902,4.85194515 C5.92276679,5.48705835 5.48705613,6.33632488 5.29504516,7.39977023 C5.1030342,8.46321558 5.00703016,9.88112144 5.00703016,11.6535304 L5.00703016,24.9465308 C5.00703016,27.6937646 5.33935184,29.6655399 6.00400519,30.861916 C6.66865853,32.058292 7.94625079,32.656471 9.8368203,32.656471 C11.6978497,32.656471 12.9754419,32.0065975 13.6696354,30.706831 C14.3638289,29.4070644 14.7109205,27.3245152 14.7109205,24.4591208 L14.7109205,21.9777607 L10.1469903,21.9777607 L10.1469903,18.4329606 L19.2305406,18.4329606 L19.2305406,36.2012711 L16.0845305,36.2012711 L15.5971205,32.080441 C14.4745948,35.1230763 12.347736,36.6443711 9.21648029,36.6443711 C5.96706394,36.6443711 3.61865735,35.6178664 2.17119007,33.564826 Z M24.8489072,0.31017001 L38.7622476,0.31017001 L38.7622476,4.03221012 L29.8559373,4.03221012 L29.8559373,15.9072905 L37.0784675,15.9072905 L37.0784675,19.4520906 L29.8559373,19.4520906 L29.8559373,32.612161 L38.8508676,32.612161 L38.8508676,36.2012711 L24.8489072,36.2012711 L24.8489072,0.31017001 Z M43.3614841,0.31017001 L46.7733542,0.31017001 L56.9646545,24.1489507 L56.9646545,0.31017001 L61.1297947,0.31017001 L61.1297947,36.2012711 L57.9394746,36.2012711 L47.6152442,11.6978404 L47.6152442,36.2012711 L43.3614841,36.2012711 L43.3614841,0.31017001 Z M67.2355712,0.31017001 L81.1489117,0.31017001 L81.1489117,4.03221012 L72.2426014,4.03221012 L72.2426014,15.9072905 L79.4651316,15.9072905 L79.4651316,19.4520906 L72.2426014,19.4520906 L72.2426014,32.612161 L81.2375317,32.612161 L81.2375317,36.2012711 L67.2355712,36.2012711 L67.2355712,0.31017001 Z M85.7481482,0.31017001 L92.9706784,0.31017001 C96.6041167,0.31017001 99.2700751,1.05604757 100.968634,2.54782508 C102.667192,4.03960258 103.516459,6.46924336 103.516459,9.8368203 C103.516459,14.4450835 102.039473,17.2365857 99.0854586,18.2114106 L104.181109,36.2012711 L99.3513186,36.2012711 L94.6544585,19.3634706 L90.7551784,19.3634706 L90.7551784,36.2012711 L85.7481482,36.2012711 L85.7481482,0.31017001 Z M92.6605084,15.7743605 C94.8169393,15.7743605 96.3603889,15.3460348 97.2909036,14.4893704 C98.2214182,13.6327061 98.6866686,12.0818716 98.6866686,9.8368203 C98.6866686,8.35981287 98.5242002,7.20037943 98.1992586,6.3584852 C97.8743169,5.51659096 97.2982927,4.89625715 96.4711685,4.49746514 C95.6440444,4.09867313 94.477226,3.89928012 92.9706784,3.89928012 L90.7551784,3.89928012 L90.7551784,15.7743605 L92.6605084,15.7743605 Z M109.489305,0.31017001 L114.407715,0.31017001 L114.407715,36.2012711 L109.489305,36.2012711 L109.489305,0.31017001 Z M122.197272,33.431896 C120.749805,31.3197754 120.026082,28.4027295 120.026082,24.6806708 L120.026082,12.0080104 C120.026082,8.07917061 120.735035,5.09566035 122.152962,3.05739009 C123.570889,1.01911984 126.081764,0 129.685662,0 C132.905539,0 135.21702,0.871421313 136.620178,2.61429008 C138.023335,4.35715885 138.724903,6.92711323 138.724903,10.3242303 L138.724903,13.1600704 L133.983732,13.1600704 L133.983732,10.6344003 C133.983732,8.98015201 133.909883,7.70994467 133.762182,6.82374021 C133.614482,5.93753575 133.23785,5.22858282 132.632277,4.69686015 C132.026704,4.16513747 131.059279,3.89928012 129.729972,3.89928012 C128.371125,3.89928012 127.359391,4.18729225 126.694737,4.76332515 C126.030084,5.33935805 125.594373,6.13693009 125.387592,7.15606522 C125.180811,8.17520035 125.077422,9.54141173 125.077422,11.2547403 L125.077422,25.4782508 C125.077422,27.30974 125.225121,28.7424157 125.520522,29.7763209 C125.815924,30.8102261 126.295944,31.5487188 126.960597,31.991821 C127.625251,32.4349232 128.548366,32.656471 129.729972,32.656471 C131.000199,32.656471 131.945469,32.3758438 132.565812,31.814581 C133.186156,31.2533182 133.577557,30.4852858 133.740027,29.5104609 C133.902498,28.535636 133.983732,27.2063493 133.983732,25.5225608 L133.983732,22.8639607 L138.724903,22.8639607 L138.724903,25.5225608 C138.724903,29.0969188 138.052874,31.8367265 136.708798,33.742066 C135.364721,35.6474056 133.023699,36.6000611 129.685662,36.6000611 C126.140844,36.6000611 123.644739,35.5440167 122.197272,33.431896 Z M154.614186,0.31017001 L159.621216,0.31017001 L159.621216,32.612161 L168.793386,32.612161 L168.793386,36.2012711 L154.614186,36.2012711 L154.614186,0.31017001 Z M173.990808,33.609136 C172.46949,31.615176 171.708843,28.7276698 171.708843,24.9465308 L171.708843,11.3433604 C171.708843,7.62130163 172.476875,4.80025975 174.012963,2.88015009 C175.549051,0.960040429 178.059926,0 181.545663,0 C185.031401,0 187.534891,0.967425356 189.056208,2.90230509 C190.577526,4.83718482 191.338173,7.65084177 191.338173,11.3433604 L191.338173,24.9908408 C191.338173,28.7128995 190.570141,31.5782509 189.034053,33.586981 C187.497966,35.5957111 185.00186,36.6000611 181.545663,36.6000611 C178.030385,36.6000611 175.512126,35.6030961 173.990808,33.609136 Z M185.312013,31.017001 C185.961896,29.9240155 186.286833,28.269792 186.286833,26.0542808 L186.286833,10.3242303 C186.286833,8.13825932 185.961896,6.52096045 185.312013,5.47228517 C184.66213,4.42360989 183.406692,3.89928012 181.545663,3.89928012 C179.655094,3.89928012 178.384886,4.42360989 177.735003,5.47228517 C177.08512,6.52096045 176.760183,8.13825932 176.760183,10.3242303 L176.760183,26.0542808 C176.760183,28.269792 177.08512,29.9240155 177.735003,31.017001 C178.384886,32.1099865 179.655094,32.656471 181.545663,32.656471 C183.406692,32.656471 184.66213,32.1099865 185.312013,31.017001 Z M198.24153,33.564826 C196.794063,31.5117857 196.07034,28.4618111 196.07034,24.4148108 L196.07034,12.4068004 C196.07034,9.63002641 196.358352,7.34808416 196.934385,5.56090517 C197.510418,3.77372618 198.499998,2.40012987 199.903155,1.44007504 C201.306312,0.480020215 203.233778,0 205.68561,0 C208.994107,0 211.379438,0.841881607 212.841675,2.52567008 C214.303913,4.20945855 215.035021,6.85326219 215.035021,10.4571603 L215.035021,11.7864604 L210.33816,11.7864604 L210.33816,10.6787103 C210.33816,8.96538171 210.234771,7.64347989 210.02799,6.71296521 C209.821209,5.78245053 209.385499,5.08088252 208.720845,4.60824014 C208.056192,4.13559776 207.073997,3.89928012 205.77423,3.89928012 C204.385843,3.89928012 203.351954,4.21683196 202.67253,4.85194515 C201.993107,5.48705835 201.557396,6.33632488 201.365385,7.39977023 C201.173374,8.46321558 201.07737,9.88112144 201.07737,11.6535304 L201.07737,24.9465308 C201.07737,27.6937646 201.409692,29.6655399 202.074345,30.861916 C202.738998,32.058292 204.016591,32.656471 205.90716,32.656471 C207.76819,32.656471 209.045782,32.0065975 209.739975,30.706831 C210.434169,29.4070644 210.78126,27.3245152 210.78126,24.4591208 L210.78126,21.9777607 L206.21733,21.9777607 L206.21733,18.4329606 L215.300881,18.4329606 L215.300881,36.2012711 L212.15487,36.2012711 L211.66746,32.080441 C210.544935,35.1230763 208.418076,36.6443711 205.28682,36.6443711 C202.037404,36.6443711 199.688997,35.6178664 198.24153,33.564826 Z M222.536562,33.609136 C221.015244,31.615176 220.254597,28.7276698 220.254597,24.9465308 L220.254597,11.3433604 C220.254597,7.62130163 221.022629,4.80025975 222.558717,2.88015009 C224.094805,0.960040429 226.60568,0 230.091417,0 C233.577155,0 236.080645,0.967425356 237.601963,2.90230509 C239.12328,4.83718482 239.883928,7.65084177 239.883928,11.3433604 L239.883928,24.9908408 C239.883928,28.7128995 239.115895,31.5782509 237.579808,33.586981 C236.04372,35.5957111 233.547615,36.6000611 230.091417,36.6000611 C226.57614,36.6000611 224.05788,35.6030961 222.536562,33.609136 Z M233.857767,31.017001 C234.507651,29.9240155 234.832588,28.269792 234.832588,26.0542808 L234.832588,10.3242303 C234.832588,8.13825932 234.507651,6.52096045 233.857767,5.47228517 C233.207884,4.42360989 231.952447,3.89928012 230.091417,3.89928012 C228.200848,3.89928012 226.930641,4.42360989 226.280757,5.47228517 C225.630874,6.52096045 225.305937,8.13825932 225.305937,10.3242303 L225.305937,26.0542808 C225.305937,28.269792 225.630874,29.9240155 226.280757,31.017001 C226.930641,32.1099865 228.200848,32.656471 230.091417,32.656471 C231.952447,32.656471 233.207884,32.1099865 233.857767,31.017001 Z"/>
</svg>
