<svg xmlns="http://www.w3.org/2000/svg" width="400" height="220" viewBox="0 0 400 220">
  <g fill="none" fill-rule="evenodd">
    <rect width="400" height="220" fill="#FFF"/>
    <path fill="#615DEC" d="M147.526087,150.887982 C143.175341,144.717025 141,135.549518 141,123.385186 L141,87.2919273 C141,78.9455971 141.865697,72.0866148 143.597116,66.7147746 C145.328536,61.3429344 148.302981,57.2142266 152.520542,54.3285273 C156.738102,51.442828 162.531612,50 169.901244,50 C179.845807,50 187.015553,52.5304983 191.410695,57.5915709 C195.805837,62.6526435 198.003375,70.5992962 198.003375,81.4317673 L198.003375,85.427331 L183.885716,85.427331 L183.885716,82.0976946 C183.885716,76.9478313 183.574953,72.9745049 182.953418,70.1775964 C182.331883,67.3806879 181.022239,65.2719393 179.024447,63.8512873 C177.026656,62.4306353 174.074407,61.72032 170.167615,61.72032 C165.994449,61.72032 162.88682,62.6748062 160.844633,64.5838073 C158.802446,66.4928084 157.492802,69.0455041 156.915662,72.241971 C156.338522,75.4384379 156.049956,79.7003298 156.049956,85.0277746 L156.049956,124.983411 C156.049956,133.240951 157.048837,139.167644 159.046629,142.763669 C161.044421,146.359695 164.884563,148.15768 170.567171,148.15768 C176.160988,148.15768 180.00113,146.204313 182.087713,142.29752 C184.174295,138.390727 185.217571,132.131074 185.217571,123.518371 L185.217571,116.059986 L171.499469,116.059986 L171.499469,105.405149 L198.802487,105.405149 L198.802487,158.812517 L189.34632,158.812517 L187.88128,146.426269 C184.507232,155.571716 178.114394,160.144371 168.702575,160.144371 C158.935592,160.144371 151.876834,157.058939 147.526087,150.887982 Z M215.689977,50.9322982 L230.739934,50.9322982 L230.739934,148.024495 L258.309323,148.024495 L258.309323,158.812517 L215.689977,158.812517 L215.689977,50.9322982 Z"/>
  </g>
</svg>
