<svg xmlns="http://www.w3.org/2000/svg" width="40" height="38" viewBox="0 0 40 38">
  <path fill="#615DEC" fill-rule="evenodd" d="M2.67120309,34.3635549 C1.22373581,32.3105146 0.500013026,29.26054 0.500013026,25.2135396 L0.500013026,13.2055293 C0.500013026,10.4287553 0.788025155,8.14681304 1.36405805,6.35963405 C1.94009095,4.57245506 2.92967109,3.19885875 4.33282814,2.23880392 C5.7359852,1.27874909 7.66345099,0.798728878 10.1152833,0.798728878 C13.42378,0.798728878 15.8091112,1.64061049 17.2713485,3.32439896 C18.7335859,5.00818743 19.4646936,7.65199107 19.4646936,11.2558892 L19.4646936,12.5851892 L14.7678335,12.5851892 L14.7678335,11.4774392 C14.7678335,9.76411059 14.6644445,8.44220877 14.4576635,7.51169409 C14.2508824,6.5811794 13.8151718,5.8796114 13.1505184,5.40696902 C12.4858651,4.93432664 11.5036699,4.698009 10.2039033,4.698009 C8.81551634,4.698009 7.78162665,5.01556083 7.10220323,5.65067403 C6.42277981,6.28578722 5.98706916,7.13505376 5.79505819,8.19849911 C5.60304722,9.26194446 5.50704318,10.6798503 5.50704318,12.4522592 L5.50704318,25.7452597 C5.50704318,28.4924935 5.83936487,30.4642688 6.50401821,31.6606448 C7.16867156,32.8570209 8.44626382,33.4551999 10.3368333,33.4551999 C12.1978627,33.4551999 13.475455,32.8053264 14.1696484,31.5055598 C14.8638419,30.2057933 15.2109335,28.1232441 15.2109335,25.2578496 L15.2109335,22.7764896 L10.6470033,22.7764896 L10.6470033,19.2316894 L19.7305536,19.2316894 L19.7305536,37 L16.5845435,37 L16.0971335,32.8791699 C14.9746079,35.9218052 12.8477491,37.4431 9.71649331,37.4431 C6.46707696,37.4431 4.11867038,36.4165952 2.67120309,34.3635549 Z M25.3489202,1.10889889 L30.3559503,1.10889889 L30.3559503,33.4108899 L39.5281206,33.4108899 L39.5281206,37 L25.3489202,37 L25.3489202,1.10889889 Z"/>
</svg>
